<?xml version="1.0" encoding="UTF-8" standalone="no"?>
<!-- Created with Inkscape (http://www.inkscape.org/) -->

<svg width="18.446194mm" height="11.071757mm" viewBox="0 0 18.446194 11.071757" version="1.1" id="svg1"
  xml:space="preserve" xmlns:inkscape="http://www.inkscape.org/namespaces/inkscape"
  xmlns:sodipodi="http://sodipodi.sourceforge.net/DTD/sodipodi-0.dtd" xmlns="http://www.w3.org/2000/svg"
  xmlns:svg="http://www.w3.org/2000/svg">
  <sodipodi:namedview id="namedview1" pagecolor="#ffffff" bordercolor="#000000" borderopacity="0.25"
    inkscape:showpageshadow="2" inkscape:pageopacity="0.0" inkscape:pagecheckerboard="0" inkscape:deskcolor="#d1d1d1"
    inkscape:document-units="mm" />
  <defs id="defs1" />
  <g inkscape:label="Layer 1" inkscape:groupmode="layer" id="layer1" transform="translate(-145.27593,-185.80117)">
    <path style="fill:#000000"
      d="m 161.70205,195.5993 c -1.32482,-1.69742 -2.14679,-2.02376 -4.17072,-1.6559 -0.76125,0.13836 -1.54969,0.18802 -1.75209,0.11035 -0.50286,-0.19297 -0.49199,-1.22834 0.0699,-1.79064 0.1939,-0.19404 -0.054,-0.48781 -0.36159,-0.48386 -0.43967,0.006 -1.41628,0.25633 -2.17014,0.56962 -0.95914,0.3986 -1.45425,0.48604 -1.64907,0.29122 -0.46314,-0.46314 0.0208,-1.37059 1.11815,-2.09681 0.57049,-0.37753 1.03727,-0.74536 1.03727,-0.81738 0,-0.34671 -2.40298,0.31909 -4.10337,1.13695 -2.92218,1.40551 -4.4969,1.1359 -4.44313,-0.76072 0.0563,-1.98785 2.13431,-3.57636 5.4288,-4.15007 2.24712,-0.39132 4.17628,-0.0361 6.71795,1.2371 3.88439,1.94575 6.68061,5.86067 6.25537,8.75799 -0.19548,1.33191 -0.7412,1.23591 -1.9773,-0.34785 z"
      id="path1" sodipodi:nodetypes="sssssssssscscsss" />
  </g>
</svg>